# xmcd
#
# Track frame offsets:
#	150
#	16305
#	30692
#	50587
#	65090
#	80212
#	95055
#	113897
#	125590
#	137512
#	156847
#	174107
#	188292
#
# Disc length: 2660 seconds
#
# Revision: 0
# Processed by: cddbd v1.4PL0 Copyright (c) Steve Scherf et al.
# Submitted via: EasyCDDAExtractor 4.6.9.1
#
DISCID=ab0a620d
DTITLE=Chris Brashear - Wanderlust
DYEAR=1999
DGENRE=Bluegrass
TTITLE0=Mason's Lament
TTITLE1=Unwanted Love
TTITLE2=Lost Soldier Son
TTITLE3=Newport
TTITLE4=Today's The Darkest Day
TTITLE5=Little Home In Tennessee
TTITLE6=When Day Is Done
TTITLE7=Wanderlust
TTITLE8=The Happiest Days Of All
TTITLE9=Put My Little Shoes Away
TTITLE10=Catch The Baker
TTITLE11=Just Wondering Why
TTITLE12=Kansas City Rag
EXTD=
EXTT0=
EXTT1=
EXTT2=
EXTT3=
EXTT4=
EXTT5=
EXTT6=
EXTT7=
EXTT8=
EXTT9=
EXTT10=
EXTT11=
EXTT12=
PLAYORDER=
